<svg xmlns="http://www.w3.org/2000/svg" xmlns:xlink="http://www.w3.org/1999/xlink" width="500" zoomAndPan="magnify" viewBox="0 0 375 374.999991" height="500" preserveAspectRatio="xMidYMid meet" version="1.0"><defs><clipPath id="d8b9727a26"><path d="M 133 76.339844 L 244 76.339844 L 244 186 L 133 186 Z M 133 76.339844 " clip-rule="nonzero"/></clipPath><clipPath id="1317cc7595"><path d="M 93.632812 183 L 284 183 L 284 297.3125 L 93.632812 297.3125 Z M 93.632812 183 " clip-rule="nonzero"/></clipPath><clipPath id="73442928d5"><path d="M 245.414062 166 L 375 166 L 375 257.78125 L 245.414062 257.78125 Z M 245.414062 166 " clip-rule="nonzero"/></clipPath></defs><g clip-path="url(#d8b9727a26)"><path fill="#00d4ff" d="M 133.988281 131.28125 C 133.988281 101.078125 158.476562 76.59375 188.675781 76.59375 C 218.882812 76.59375 243.371094 101.078125 243.371094 131.28125 C 243.371094 161.484375 218.882812 185.972656 188.675781 185.972656 C 158.476562 185.972656 133.988281 161.484375 133.988281 131.28125 " fill-opacity="1" fill-rule="nonzero"/></g><g clip-path="url(#1317cc7595)"><path fill="#00d4ff" d="M 282.671875 267.410156 L 274.875 237.347656 C 268.515625 212.855469 251.363281 193.425781 229.308594 183.617188 C 218.089844 192.34375 203.996094 197.554688 188.675781 197.554688 C 173.363281 197.554688 159.269531 192.34375 148.046875 183.617188 C 125.992188 193.425781 108.839844 212.855469 102.484375 237.347656 L 94.6875 267.410156 C 90.757812 282.542969 102.183594 297.308594 117.820312 297.308594 L 259.539062 297.308594 C 275.175781 297.308594 286.597656 282.542969 282.671875 267.410156 " fill-opacity="1" fill-rule="nonzero"/></g><path fill="#00d4ff" d="M 34.644531 124.277344 C 34.644531 100.101562 54.242188 80.503906 78.417969 80.503906 C 102.59375 80.503906 122.195312 100.101562 122.195312 124.277344 C 122.195312 148.453125 102.59375 168.050781 78.417969 168.050781 C 54.242188 168.050781 34.644531 148.453125 34.644531 124.277344 " fill-opacity="1" fill-rule="nonzero"/><path fill="#00d4ff" d="M 92.453125 236.945312 C 98.535156 213.511719 113.035156 194.035156 132.203125 181.402344 C 126.230469 174.957031 119 169.75 110.941406 166.167969 C 101.957031 173.152344 90.679688 177.324219 78.417969 177.324219 C 66.15625 177.324219 54.878906 173.152344 45.894531 166.167969 C 28.246094 174.015625 14.515625 189.566406 9.429688 209.175781 L 3.183594 233.234375 C 0.0429688 245.347656 9.1875 257.167969 21.699219 257.167969 L 87.207031 257.167969 L 92.453125 236.945312 " fill-opacity="1" fill-rule="nonzero"/><path fill="#00d4ff" d="M 342.980469 124.277344 C 342.980469 100.101562 323.382812 80.503906 299.207031 80.503906 C 275.03125 80.503906 255.429688 100.101562 255.429688 124.277344 C 255.429688 148.453125 275.03125 168.050781 299.207031 168.050781 C 323.382812 168.050781 342.980469 148.453125 342.980469 124.277344 " fill-opacity="1" fill-rule="nonzero"/><g clip-path="url(#73442928d5)"><path fill="#00d4ff" d="M 285.167969 236.945312 C 279.09375 213.511719 264.589844 194.035156 245.421875 181.402344 C 251.394531 174.957031 258.625 169.75 266.683594 166.167969 C 275.667969 173.152344 286.945312 177.324219 299.207031 177.324219 C 311.46875 177.324219 322.746094 173.152344 331.730469 166.167969 C 349.378906 174.015625 363.109375 189.566406 368.199219 209.175781 L 374.441406 233.234375 C 377.585938 245.347656 368.4375 257.167969 355.921875 257.167969 L 290.421875 257.167969 L 285.167969 236.945312 " fill-opacity="1" fill-rule="nonzero"/></g></svg>